HIERARCHY
ROOT Hips
{
	OFFSET 0.000000 0.000000 0.000000
	CHANNELS 6 Xposition Yposition Zposition Zrotation Yrotation Xrotation 
	JOINT LowerBack
	{
		OFFSET 0.000000 0.000000 0.000000
		CHANNELS 3 Zrotation Yrotation Xrotation
		JOINT Spine
		{
			OFFSET 0.028270 2.035590 -0.193380
			CHANNELS 3 Zrotation Yrotation Xrotation
			JOINT Spine1
			{
				OFFSET 0.056720 2.048850 -0.042750
				CHANNELS 3 Zrotation Yrotation Xrotation
				JOINT Neck
				{
					OFFSET 0.000000 0.000000 0.000000
					CHANNELS 3 Zrotation Yrotation Xrotation
					JOINT Neck1
					{
						OFFSET -0.054170 1.746240 0.172020
						CHANNELS 3 Zrotation Yrotation Xrotation
						JOINT Head
						{
							OFFSET 0.104070 1.761360 -0.123970
							CHANNELS 3 Zrotation Yrotation Xrotation
							End Site
							{
								OFFSET 0.000000 0.000000 0.000000
							}
						}
					}
				}
				JOINT LeftShoulder
				{
					OFFSET 0.000000 0.000000 0.000000
					CHANNELS 3 Zrotation Yrotation Xrotation
					JOINT LeftArm
					{
						OFFSET 3.362410 1.200890 -0.311210
						CHANNELS 3 Zrotation Yrotation Xrotation
						JOINT LeftForeArm
						{
							OFFSET 4.983000 -0.000000 -0.000000
							CHANNELS 3 Zrotation Yrotation Xrotation
							JOINT LeftHand
							{
								OFFSET 3.483560 -0.000000 -0.000000
								CHANNELS 3 Zrotation Yrotation Xrotation
								JOINT LeftFingerBase
								{
									OFFSET 0.000000 0.000000 0.000000
									CHANNELS 3 Zrotation Yrotation Xrotation
									JOINT LeftHandIndex1
									{
										OFFSET 0.715260 -0.000000 -0.000000
										CHANNELS 3 Zrotation Yrotation Xrotation
										End Site
										{
											OFFSET 0.000000 0.000000 0.000000
										}
									}
								}
								JOINT LThumb
								{
									OFFSET 0.000000 0.000000 0.000000
									CHANNELS 3 Zrotation Yrotation Xrotation
									End Site
									{
										OFFSET 0.000000 0.000000 0.000000
									}
								}
							}
						}
					}
				}
				JOINT RightShoulder
				{
					OFFSET 0.000000 0.000000 0.000000
					CHANNELS 3 Zrotation Yrotation Xrotation
					JOINT RightArm
					{
						OFFSET -3.136600 1.374050 -0.404650
						CHANNELS 3 Zrotation Yrotation Xrotation
						JOINT RightForeArm
						{
							OFFSET -5.241900 -0.000000 -0.000000
							CHANNELS 3 Zrotation Yrotation Xrotation
							JOINT RightHand
							{
								OFFSET -3.444170 -0.000000 -0.000000
								CHANNELS 3 Zrotation Yrotation Xrotation
								JOINT RightFingerBase
								{
									OFFSET 0.000000 0.000000 0.000000
									CHANNELS 3 Zrotation Yrotation Xrotation
									JOINT RightHandIndex1
									{
										OFFSET -0.622530 -0.000000 -0.000000
										CHANNELS 3 Zrotation Yrotation Xrotation
										End Site
										{
											OFFSET 0.000000 0.000000 0.000000
										}
									}
								}
								JOINT RThumb
								{
									OFFSET 0.000000 0.000000 0.000000
									CHANNELS 3 Zrotation Yrotation Xrotation
									End Site
									{
										OFFSET 0.000000 0.000000 0.000000
									}
								}
							}
						}
					}
				}
			}
		}
	}
}
}
MOTION
Frames: 12
Frame Time: 0.008333
8.287689 16.173281 1.588429 14.585094 64.131835 17.224813 -3.436484 -1.238340 0.261264 -0.905561 -0.991878 -2.512532 -4.124540 -1.065559 1.792254 7.283279 -9.126135 -10.444201 -1.519682 -0.071939 -0.770154 0.000000 0.000000 0.000000 -1.316462 20.907364 2.566446 -68.050033 14.928214 -0.967524 -4.356042 -25.937413 -0.027309 -5.084157 9.452621 -0.411187 -0.141221 -0.049567 -0.000000 0.000000 0.000000 0.000000 0.000000 0.000000 0.000000 5.677175 -3.569842 -0.109850 65.123077 12.673760 5.400988 2.032315 39.560587 -0.005974 -4.856715 2.791302 -0.127769 0.127742 -0.163786 -0.000000 0.000000 0.000000 0.000000 0.000000 0.000000 0.000000 
8.490036 16.252476 1.688648 14.429658 62.912201 17.292233 -3.730393 -0.818622 -0.099983 -0.953035 -0.556541 -2.599513 -3.983698 -0.638791 1.727688 6.951431 -8.760395 -10.359868 -1.405578 -0.064745 -0.743769 0.000000 0.000000 0.000000 -1.903093 21.474286 2.584314 -68.699743 15.895989 0.805262 -4.409701 -26.337862 -0.030229 -6.662275 10.014199 -0.576472 -0.133144 -0.062364 -0.000000 0.000000 0.000000 0.000000 0.000000 0.000000 0.000000 4.755172 -2.874424 -0.156566 63.909164 13.273383 6.996799 1.907172 41.847387 -0.005649 -4.260748 2.541613 -0.102958 0.120330 -0.170607 -0.000000 0.000000 0.000000 0.000000 0.000000 0.000000 0.000000 
8.696558 16.340383 1.793356 14.366303 61.701655 17.429119 -4.049150 -0.390649 -0.506273 -1.007799 -0.112452 -2.690242 -3.844154 -0.203562 1.685353 6.623502 -8.511933 -10.288118 -1.282186 -0.056711 -0.719310 0.000000 0.000000 0.000000 -2.557397 22.142782 2.569757 -69.165386 16.854808 2.583660 -4.425863 -26.984102 -0.032808 -7.912259 10.466543 -0.719950 -0.124502 -0.074498 -0.000000 0.000000 0.000000 0.000000 0.000000 0.000000 0.000000 3.841787 -2.314657 -0.215843 62.688839 13.779019 8.554780 1.782583 44.154873 -0.004970 -3.614372 2.303281 -0.079854 0.111431 -0.176777 -0.000000 0.000000 0.000000 0.000000 0.000000 0.000000 0.000000 
8.906976 16.435902 1.902188 14.378103 60.519111 17.610808 -4.384859 0.036780 -0.951060 -1.069295 0.331159 -2.785728 -3.710277 0.230806 1.656663 6.303305 -8.345468 -10.215031 -1.153664 -0.048392 -0.693050 0.000000 0.000000 0.000000 -3.264643 22.879511 2.522894 -69.466042 17.824483 4.281597 -4.404572 -27.819015 -0.034775 -8.801477 10.811941 -0.830722 -0.115423 -0.085696 -0.000000 0.000000 0.000000 0.000000 0.000000 0.000000 0.000000 2.944302 -1.861155 -0.287286 61.499925 14.175963 10.006723 1.660059 46.442815 -0.003970 -2.932800 2.083336 -0.059158 0.101031 -0.182371 -0.000000 0.000000 0.000000 0.000000 0.000000 0.000000 0.000000 
9.121155 16.537731 2.014540 14.438426 59.381411 17.808894 -4.723628 0.454876 -1.427708 -1.134931 0.764726 -2.883441 -3.583043 0.654859 1.646634 5.997187 -8.269626 -10.141743 -1.020148 -0.039750 -0.665546 0.000000 0.000000 0.000000 -4.005165 23.692566 2.442949 -69.627431 18.773961 5.867742 -4.348981 -28.758052 -0.035897 -9.312135 11.046751 -0.900579 -0.106177 -0.095693 -0.000000 0.000000 0.000000 0.000000 0.000000 0.000000 0.000000 2.072176 -1.531244 -0.371799 60.372958 14.516685 11.358933 1.542755 48.639488 -0.002738 -2.249251 1.887444 -0.041570 0.089608 -0.187324 -0.000000 0.000000 0.000000 0.000000 0.000000 0.000000 0.000000 
9.338794 16.644484 2.129854 14.523120 58.303808 17.996930 -5.052448 0.856179 -1.929724 -1.202383 1.180003 -2.983982 -3.464632 1.060364 1.647358 5.706986 -8.254553 -10.057193 -0.884937 -0.031221 -0.633980 0.000000 0.000000 0.000000 -4.754533 24.543746 2.333526 -69.693047 19.729294 7.270547 -4.264839 -29.750131 -0.036077 -9.459107 11.169889 -0.926823 -0.097114 -0.104355 -0.000000 0.000000 0.000000 0.000000 0.000000 0.000000 0.000000 1.228539 -1.298296 -0.467836 59.343792 14.792152 12.571879 1.433061 50.705488 -0.001342 -1.576758 1.711131 -0.026691 0.077427 -0.191607 -0.000000 0.000000 0.000000 0.000000 0.000000 0.000000 0.000000 
9.559830 16.754773 2.247276 14.596764 57.297664 18.144755 -5.350663 1.234569 -2.452030 -1.267098 1.569599 -3.085044 -3.354682 1.440081 1.663133 5.436213 -8.309702 -9.964043 -0.748262 -0.022751 -0.599415 0.000000 0.000000 0.000000 -5.488328 25.432153 2.197954 -69.707305 20.673457 8.469017 -4.160004 -30.728853 -0.035316 -9.277309 11.172632 -0.910451 -0.088647 -0.111575 -0.000000 0.000000 0.000000 0.000000 0.000000 0.000000 0.000000 0.419997 -1.176193 -0.574408 58.434784 15.049085 13.663627 1.333944 52.582155 0.000127 -0.938919 1.550946 -0.014519 0.065089 -0.195073 -0.000000 0.000000 0.000000 0.000000 0.000000 0.000000 0.000000 
9.783840 16.867254 2.366079 14.635287 56.371569 18.229022 -5.602639 1.585832 -2.986253 -1.325694 1.928355 -3.186712 -3.254665 1.788956 1.685886 5.184868 -8.402941 -9.854048 -0.613967 -0.014773 -0.559930 0.000000 0.000000 0.000000 -6.180545 26.316637 2.043837 -69.723234 21.638947 9.407085 -4.043433 -31.663294 -0.033754 -8.828320 11.051249 -0.857564 -0.081170 -0.117351 -0.000000 0.000000 0.000000 0.000000 0.000000 0.000000 0.000000 -0.350622 -1.131162 -0.688905 57.670870 15.265771 14.599293 1.246949 54.249217 0.001625 -0.334318 1.396583 -0.004654 0.052809 -0.197623 -0.000000 0.000000 0.000000 0.000000 0.000000 0.000000 0.000000 
10.010667 16.980618 2.485341 14.606251 55.530834 18.224691 -5.787674 1.906842 -3.525512 -1.373296 2.251792 -3.286323 -3.164677 2.102726 1.719246 4.956396 -8.545566 -9.732525 -0.483314 -0.007276 -0.517380 0.000000 0.000000 0.000000 -6.812788 27.190794 1.877059 -69.785246 22.618460 10.073637 -3.924102 -32.516083 -0.031594 -8.188708 10.801395 -0.777663 -0.074973 -0.121701 -0.000000 0.000000 0.000000 0.000000 0.000000 0.000000 0.000000 -1.071368 -1.174352 -0.808242 57.056269 15.480887 15.400525 1.173600 55.669521 0.003086 0.226545 1.243298 0.003005 0.041087 -0.199101 -0.000000 0.000000 0.000000 0.000000 0.000000 0.000000 0.000000 
10.239652 17.093677 2.604388 14.499114 54.776651 18.117230 -5.897756 2.195807 -4.054838 -1.407771 2.537713 -3.381968 -3.086610 2.379469 1.757819 4.752401 -8.711262 -9.597415 -0.360327 -0.000596 -0.471645 0.000000 0.000000 0.000000 -7.365388 28.026216 1.706791 -69.935770 23.628537 10.443863 -3.810439 -33.272175 -0.029089 -7.444689 10.427187 -0.682451 -0.070215 -0.124687 -0.000000 0.000000 0.000000 0.000000 0.000000 0.000000 0.000000 -1.733332 -1.274187 -0.929614 56.598217 15.671134 16.038708 1.113796 56.842915 0.004517 0.755223 1.083539 0.008761 0.029975 -0.199457 -0.000000 0.000000 0.000000 0.000000 0.000000 0.000000 0.000000 
10.470279 17.205277 2.722492 14.300415 54.109050 17.894885 -5.923427 2.451418 -4.562131 -1.426518 2.784141 -3.470523 -3.021962 2.617522 1.803132 4.577735 -8.904561 -9.454917 -0.247469 0.005198 -0.424802 0.000000 0.000000 0.000000 -7.829042 28.813828 1.539626 -70.204548 24.662522 10.520371 -3.709186 -33.919514 -0.026485 -6.683879 9.941326 -0.583930 -0.066846 -0.126400 -0.000000 0.000000 0.000000 0.000000 0.000000 0.000000 0.000000 -2.318960 -1.431390 -1.049270 56.285945 15.855164 16.525608 1.067305 57.761189 0.005890 1.252754 0.915738 0.012616 0.019713 -0.198659 -0.000000 0.000000 0.000000 0.000000 0.000000 0.000000 0.000000 
10.701680 17.314245 2.839186 14.014852 53.524315 17.556514 -5.867205 2.672951 -5.031157 -1.429485 2.990579 -3.548894 -2.972770 2.816745 1.853965 4.436919 -9.117207 -9.309672 -0.147747 0.009967 -0.378463 0.000000 0.000000 0.000000 -8.196232 29.541986 1.382634 -70.612821 25.712905 10.313053 -3.625381 -34.454030 -0.023993 -5.986127 9.367381 -0.492606 -0.064648 -0.126969 -0.000000 0.000000 0.000000 0.000000 0.000000 0.000000 0.000000 -2.812414 -1.632070 -1.164272 56.106992 16.029028 16.855610 1.033066 58.435898 0.007205 1.725778 0.740294 0.014573 0.010337 -0.196804 -0.000000 0.000000 0.000000 0.000000 0.000000 0.000000 0.000000 
